<svg width="78" height="60" viewBox="0 0 78 60" fill="none" xmlns="http://www.w3.org/2000/svg">
<path fill-rule="evenodd" clip-rule="evenodd" d="M72.4111 6.33893C71.954 5.88181 71.334 5.625 70.6875 5.625H7.3125C6.66603 5.625 6.04605 5.88181 5.58893 6.33893C5.13181 6.79605 4.875 7.41603 4.875 8.0625V51.9375C4.875 52.584 5.13181 53.204 5.58893 53.6611C6.04605 54.1182 6.66603 54.375 7.3125 54.375H70.6875C71.334 54.375 71.954 54.1182 72.4111 53.6611C72.8682 53.204 73.125 52.584 73.125 51.9375V8.0625C73.125 7.41603 72.8682 6.79605 72.4111 6.33893ZM2.14178 2.89178C3.51314 1.52042 5.3731 0.75 7.3125 0.75H70.6875C72.6269 0.75 74.4869 1.52042 75.8582 2.89178C77.2296 4.26314 78 6.1231 78 8.0625V51.9375C78 53.8769 77.2296 55.7369 75.8582 57.1082C74.4869 58.4796 72.6269 59.25 70.6875 59.25H7.3125C5.3731 59.25 3.51314 58.4796 2.14178 57.1082C0.770422 55.7369 0 53.8769 0 51.9375V8.0625C0 6.1231 0.770422 4.26314 2.14178 2.89178ZM15.3389 16.0889C14.8818 16.546 14.625 17.166 14.625 17.8125C14.625 18.459 14.8818 19.079 15.3389 19.5361C15.796 19.9932 16.416 20.25 17.0625 20.25H60.9375C61.584 20.25 62.204 19.9932 62.6611 19.5361C63.1182 19.079 63.375 18.459 63.375 17.8125C63.375 17.166 63.1182 16.546 62.6611 16.0889C62.204 15.6318 61.584 15.375 60.9375 15.375H17.0625C16.416 15.375 15.796 15.6318 15.3389 16.0889ZM15.3389 28.2764C14.8818 28.7335 14.625 29.3535 14.625 30C14.625 30.6465 14.8818 31.2665 15.3389 31.7236C15.796 32.1807 16.416 32.4375 17.0625 32.4375H60.9375C61.584 32.4375 62.204 32.1807 62.6611 31.7236C63.1182 31.2665 63.375 30.6465 63.375 30C63.375 29.3535 63.1182 28.7335 62.6611 28.2764C62.204 27.8193 61.584 27.5625 60.9375 27.5625H17.0625C16.416 27.5625 15.796 27.8193 15.3389 28.2764ZM15.3389 40.4639C14.8818 40.921 14.625 41.541 14.625 42.1875C14.625 42.834 14.8818 43.454 15.3389 43.9111C15.796 44.3682 16.416 44.625 17.0625 44.625H46.3125C46.959 44.625 47.579 44.3682 48.0361 43.9111C48.4932 43.454 48.75 42.834 48.75 42.1875C48.75 41.541 48.4932 40.921 48.0361 40.4639C47.579 40.0068 46.959 39.75 46.3125 39.75H17.0625C16.416 39.75 15.796 40.0068 15.3389 40.4639Z" fill="#753C75"/>
</svg>
