<svg version="1.1" id="Layer_1" xmlns="http://www.w3.org/2000/svg" xmlns:xlink="http://www.w3.org/1999/xlink" x="0px" y="0px"
	 width="100%" viewBox="0 0 1139 416" enable-background="new 0 0 1139 416" xml:space="preserve">
<path fill="#000000" opacity="1.000000" stroke="none" 
	d="
M57.000000,417.000000 
	C38.338913,417.000000 19.677828,417.000000 1.012557,417.000000 
	C1.008371,278.380371 1.008371,139.760742 1.008371,1.000000 
	C323.356628,1.000000 645.713318,1.000000 968.855103,1.319492 
	C969.302612,2.004930 969.012756,2.626224 968.620178,2.699868 
	C955.205261,5.216550 944.130005,12.619354 935.004333,21.870752 
	C924.079468,32.946159 913.601624,44.913326 905.238770,57.972656 
	C887.130920,86.249619 870.421387,115.425468 853.288208,144.321640 
	C845.515503,157.430695 838.157776,170.785095 830.499451,183.962936 
	C821.550110,199.362259 812.416260,214.654434 803.476562,230.059326 
	C794.456116,245.603363 785.638550,261.265228 776.616760,276.808502 
	C766.313171,294.559875 755.841553,312.213593 745.520081,329.954651 
	C737.765686,343.283234 730.176025,356.707642 722.434631,370.043854 
	C713.333984,385.721588 704.148621,401.350128 695.000000,417.000000 
	C639.643372,417.000000 584.286682,417.000000 528.345703,416.658264 
	C519.319458,412.570282 510.886597,408.803436 502.433838,405.081818 
	C479.881165,395.152222 457.304169,385.277802 434.766022,375.315369 
	C405.206543,362.249359 375.674347,349.121521 346.131714,336.017426 
	C324.294525,326.331177 302.472778,316.609955 280.620239,306.958496 
	C245.145767,291.290710 209.746307,275.447754 174.131836,260.104309 
	C151.395187,250.308899 127.466652,244.669815 102.757530,243.109406 
	C86.939575,242.110489 71.324173,244.030685 56.452267,250.017197 
	C40.642796,256.381104 28.194818,266.819092 21.334869,282.490540 
	C13.381589,300.659698 13.948646,319.683838 19.889875,338.242035 
	C23.276928,348.821869 28.602116,358.781219 33.036011,369.298096 
	C33.313095,369.788239 33.608746,370.000336 33.901794,370.148132 
	C33.899200,370.083832 33.773197,370.109985 33.868031,370.434296 
	C34.623718,371.585083 35.284573,372.411591 35.929817,373.445618 
	C35.914204,373.653137 36.086445,374.032043 36.083488,374.302551 
	C36.368484,374.782684 36.656437,374.992310 36.940247,375.137085 
	C36.936111,375.072235 36.808338,375.096191 36.896984,375.456726 
	C41.340454,384.512848 45.750988,393.181152 50.028526,401.914581 
	C52.464516,406.888123 54.683365,411.968018 57.000000,417.000000 
z"/>
<path fill="#DEDEDE" opacity="1.000000" stroke="none" 
	d="
M695.468628,417.000000 
	C704.148621,401.350128 713.333984,385.721588 722.434631,370.043854 
	C730.176025,356.707642 737.765686,343.283234 745.520081,329.954651 
	C755.841553,312.213593 766.313171,294.559875 776.616760,276.808502 
	C785.638550,261.265228 794.456116,245.603363 803.476562,230.059326 
	C812.416260,214.654434 821.550110,199.362259 830.499451,183.962936 
	C838.157776,170.785095 845.515503,157.430695 853.288208,144.321640 
	C870.421387,115.425468 887.130920,86.249619 905.238770,57.972656 
	C913.601624,44.913326 924.079468,32.946159 935.004333,21.870752 
	C944.130005,12.619354 955.205261,5.216550 968.620178,2.699868 
	C969.012756,2.626224 969.302612,2.004930 969.320190,1.319492 
	C980.020874,1.000000 991.041809,1.000000 1002.211304,1.349841 
	C1005.437561,2.463870 1008.475342,3.534544 1011.599548,3.940914 
	C1027.996704,6.073648 1043.531372,11.181273 1058.719604,17.454756 
	C1059.803833,17.902660 1060.300049,19.774414 1060.751221,21.141735 
	C1059.720703,22.398653 1058.780518,23.412077 1058.329224,24.609732 
	C1043.511597,63.939514 1029.221802,103.476379 1013.829590,142.579346 
	C997.955444,182.906723 981.027344,222.819458 964.533203,262.902374 
	C959.419495,275.329285 954.216858,287.719604 948.898926,300.462524 
	C944.616699,310.260651 940.435547,319.699341 936.375061,329.189667 
	C925.471619,354.674042 914.583679,380.165192 903.788391,405.695435 
	C902.245178,409.345032 901.249207,413.226074 900.000000,417.000000 
	C831.979126,417.000000 763.958191,417.000000 695.468628,417.000000 
z"/>
<path fill="#ACACB0" opacity="1.000000" stroke="none" 
	d="
M36.086456,374.032043 
	C36.086445,374.032043 35.914204,373.653137 35.986485,373.065979 
	C35.296909,371.689209 34.535053,370.899597 33.773193,370.109985 
	C33.773197,370.109985 33.899200,370.083832 33.896126,369.864685 
	C33.613556,369.437042 33.334068,369.228516 33.054577,369.019989 
	C28.602116,358.781219 23.276928,348.821869 19.889875,338.242035 
	C13.948646,319.683838 13.381589,300.659698 21.334869,282.490540 
	C28.194818,266.819092 40.642796,256.381104 56.452267,250.017197 
	C71.324173,244.030685 86.939575,242.110489 102.757530,243.109406 
	C127.466652,244.669815 151.395187,250.308899 174.131836,260.104309 
	C209.746307,275.447754 245.145767,291.290710 280.620239,306.958496 
	C302.472778,316.609955 324.294525,326.331177 346.131714,336.017426 
	C375.674347,349.121521 405.206543,362.249359 434.766022,375.315369 
	C457.304169,385.277802 479.881165,395.152222 502.433838,405.081818 
	C510.886597,408.803436 519.319458,412.570282 527.880676,416.658264 
	C467.979095,417.000000 407.958221,417.000000 347.407288,416.648621 
	C345.672821,415.511902 344.566467,414.449036 343.248993,413.983612 
	C328.046326,408.612885 312.807434,403.344940 297.586487,398.025909 
	C263.389252,386.075531 229.206711,374.082886 194.988419,362.193176 
	C191.095810,360.840637 187.013031,360.035370 182.966629,358.859863 
	C182.914810,358.743378 182.578995,358.740936 182.578995,358.740936 
	C182.578995,358.740936 182.977936,359.017029 183.025970,359.374207 
	C189.039810,370.639435 195.043762,381.526917 200.958786,392.462433 
	C205.365463,400.609375 209.657120,408.818542 214.000000,417.000000 
	C164.645767,417.000000 115.291542,417.000000 65.438644,416.649170 
	C56.654091,403.407379 48.396278,390.498077 40.031956,377.658142 
	C39.321262,376.567139 37.899677,375.939240 36.808342,375.096191 
	C36.808338,375.096191 36.936111,375.072235 36.884819,374.878479 
	C36.584503,374.467133 36.335484,374.249573 36.086456,374.032043 
z"/>
<path fill="#C3C7C7" opacity="1.000000" stroke="none" 
	d="
M949.054993,300.126678 
	C954.216858,287.719604 959.419495,275.329285 964.533203,262.902374 
	C981.027344,222.819458 997.955444,182.906723 1013.829590,142.579346 
	C1029.221802,103.476379 1043.511597,63.939514 1058.329224,24.609732 
	C1058.780518,23.412077 1059.720703,22.398653 1061.073975,21.247704 
	C1068.397827,28.268057 1073.223633,36.567268 1075.890259,45.794849 
	C1079.699463,58.977154 1083.013062,72.325745 1085.934204,85.734932 
	C1088.695068,98.408089 1090.772827,111.234520 1092.971436,124.024422 
	C1095.174805,136.841537 1097.096802,149.706787 1099.251587,162.532532 
	C1101.431274,175.506866 1103.801270,188.449249 1105.984009,201.423096 
	C1108.109985,214.059509 1110.006470,226.734924 1112.182251,239.362457 
	C1114.687378,253.901535 1117.510742,268.386200 1119.971924,282.932404 
	C1122.790283,299.589050 1125.283203,316.300598 1128.062378,332.964111 
	C1131.295044,352.346497 1134.666992,371.705811 1138.074341,391.058228 
	C1138.204224,391.795654 1139.335449,392.356750 1140.000000,393.000000 
	C1140.000000,400.979126 1140.000000,408.958221 1140.000000,417.000000 
	C1092.312500,417.000000 1044.624878,417.000000 996.810181,416.713562 
	C994.464294,411.068268 992.200745,405.727386 990.035034,400.347137 
	C982.955322,382.758911 975.997253,365.121185 968.827759,347.569733 
	C962.349121,331.709503 955.654419,315.937561 949.054993,300.126678 
z"/>
<path fill="#000000" opacity="1.000000" stroke="none" 
	d="
M1140.000000,392.531342 
	C1139.335449,392.356750 1138.204224,391.795654 1138.074341,391.058228 
	C1134.666992,371.705811 1131.295044,352.346497 1128.062378,332.964111 
	C1125.283203,316.300598 1122.790283,299.589050 1119.971924,282.932404 
	C1117.510742,268.386200 1114.687378,253.901535 1112.182251,239.362457 
	C1110.006470,226.734924 1108.109985,214.059509 1105.984009,201.423096 
	C1103.801270,188.449249 1101.431274,175.506866 1099.251587,162.532532 
	C1097.096802,149.706787 1095.174805,136.841537 1092.971436,124.024422 
	C1090.772827,111.234520 1088.695068,98.408089 1085.934204,85.734932 
	C1083.013062,72.325745 1079.699463,58.977154 1075.890259,45.794849 
	C1073.223633,36.567268 1068.397827,28.268057 1061.392334,21.090076 
	C1060.300049,19.774414 1059.803833,17.902660 1058.719604,17.454756 
	C1043.531372,11.181273 1027.996704,6.073648 1011.599548,3.940914 
	C1008.475342,3.534544 1005.437561,2.463870 1002.679932,1.349841 
	C1048.628906,1.000000 1094.257690,1.000000 1140.000000,1.000000 
	C1140.000000,131.354202 1140.000000,261.708435 1140.000000,392.531342 
z"/>
<path fill="#000000" opacity="1.000000" stroke="none" 
	d="
M948.898926,300.462524 
	C955.654419,315.937561 962.349121,331.709503 968.827759,347.569733 
	C975.997253,365.121185 982.955322,382.758911 990.035034,400.347137 
	C992.200745,405.727386 994.464294,411.068268 996.341553,416.713562 
	C964.312439,417.000000 932.624878,417.000000 900.468689,417.000000 
	C901.249207,413.226074 902.245178,409.345032 903.788391,405.695435 
	C914.583679,380.165192 925.471619,354.674042 936.375061,329.189667 
	C940.435547,319.699341 944.616699,310.260651 948.898926,300.462524 
z"/>
<path fill="#C3C7C7" opacity="1.000000" stroke="none" 
	d="
M183.018448,358.976318 
	C187.013031,360.035370 191.095810,360.840637 194.988419,362.193176 
	C229.206711,374.082886 263.389252,386.075531 297.586487,398.025909 
	C312.807434,403.344940 328.046326,408.612885 343.248993,413.983612 
	C344.566467,414.449036 345.672821,415.511902 346.938629,416.648621 
	C302.979095,417.000000 258.958221,417.000000 214.468658,417.000000 
	C209.657120,408.818542 205.365463,400.609375 200.958786,392.462433 
	C195.043762,381.526917 189.039810,370.639435 183.037140,359.365143 
	C183.000275,358.998932 183.018448,358.976318 183.018448,358.976318 
z"/>
<path fill="#DEDEDF" opacity="1.000000" stroke="none" 
	d="
M36.896988,375.456726 
	C37.899677,375.939240 39.321262,376.567139 40.031956,377.658142 
	C48.396278,390.498077 56.654091,403.407379 64.969986,416.649170 
	C62.629444,417.000000 60.258884,417.000000 57.444164,417.000000 
	C54.683365,411.968018 52.464516,406.888123 50.028526,401.914581 
	C45.750988,393.181152 41.340454,384.512848 36.896988,375.456726 
z"/>
<path fill="#DEDEDF" opacity="1.000000" stroke="none" 
	d="
M33.868027,370.434296 
	C34.535053,370.899597 35.296909,371.689209 36.002098,372.858459 
	C35.284573,372.411591 34.623718,371.585083 33.868027,370.434296 
z"/>
<path fill="#DEDEDF" opacity="1.000000" stroke="none" 
	d="
M33.036011,369.298096 
	C33.334068,369.228516 33.613556,369.437042 33.898720,369.929016 
	C33.608746,370.000336 33.313095,369.788239 33.036011,369.298096 
z"/>
<path fill="#DEDEDF" opacity="1.000000" stroke="none" 
	d="
M36.083496,374.302521 
	C36.335484,374.249573 36.584503,374.467133 36.888954,374.943298 
	C36.656437,374.992310 36.368484,374.782684 36.083496,374.302521 
z"/>
<path fill="#C3C7C7" opacity="1.000000" stroke="none" 
	d="
M182.989105,359.007996 
	C182.977936,359.017029 182.578995,358.740936 182.578995,358.740936 
	C182.578995,358.740936 182.914810,358.743378 182.966629,358.859863 
	C183.018448,358.976318 183.000275,358.998932 182.989105,359.007996 
z"/>
</svg>